# xmcd CD database file
#
# Track frame offsets:
#	150
#	38532
#	71610
#	98842
#	121672
#	148560
#	174145
#
# Disc length: 2599 seconds
#
# Revision: 0
# Processed by: cddbd v1.5.2PL0 Copyright (c) Steve Scherf et al.
# Submitted via: CDex 1.51
#
DISCID=4e0a2507
DTITLE=Donald Byrd - Blackbyrd
DYEAR=1900
DGENRE=Jazz
TTITLE0=Flight Time
TTITLE1=Black Byrd
TTITLE2=Love's So Far Away
TTITLE3=Mr. Thomas
TTITLE4=Sky High
TTITLE5=Slop Jar Blues
TTITLE6=Where Are We Going?
EXTD=
EXTT0=
EXTT1=
EXTT2=
EXTT3=
EXTT4=
EXTT5=
EXTT6=
PLAYORDER=
